<svg width="150" height="150" viewBox="0 0 150 150" fill="none" xmlns="http://www.w3.org/2000/svg">
    <rect width="150" height="150" fill="#E6E6E6"/>
    <path fill-rule="evenodd" clip-rule="evenodd" d="M136.815 64.0811C136.374 63.5808 135.78 63.335 134.992 63.335C134.203 63.335 133.584 63.5978 133.152 64.1489C132.728 64.6831 132.507 65.48 132.507 66.5059V74.0349C131.524 72.9751 130.506 72.2205 129.464 71.7118C128.819 71.3981 128.056 71.1692 127.2 71.0589C126.7 70.9996 126.199 70.9657 125.64 70.9657C123.045 70.9657 120.943 71.8559 119.332 73.6534C117.738 75.4339 116.941 77.9181 116.941 81.0976C116.941 82.5983 117.144 84.0057 117.551 85.2945C117.958 86.5747 118.535 87.7024 119.315 88.6689C120.095 89.6185 121.036 90.3562 122.096 90.8903C123.156 91.4075 124.317 91.6703 125.58 91.6703C126.157 91.6703 126.708 91.6195 127.208 91.5262C127.556 91.4753 127.861 91.3821 128.192 91.2888C128.989 91.026 129.735 90.6444 130.413 90.1612C131.117 89.6609 131.804 89.025 132.507 88.2365V88.7368C132.507 89.6779 132.745 90.3901 133.211 90.9073C133.694 91.4075 134.288 91.6703 134.992 91.6703C135.729 91.6703 136.323 91.4245 136.772 90.9497C137.221 90.4494 137.476 89.7287 137.476 88.7452V66.2346C137.45 65.302 137.238 64.5644 136.815 64.0811ZM131.532 84.862C131.083 85.8116 130.456 86.5323 129.718 86.9986C128.955 87.465 128.124 87.6854 127.2 87.6854H127.183C126.259 87.6854 125.436 87.4395 124.665 86.9647C123.902 86.4645 123.291 85.7438 122.85 84.7773C122.409 83.8107 122.197 82.6237 122.197 81.2502C122.197 79.936 122.401 78.7829 122.825 77.8164C123.232 76.8328 123.825 76.0698 124.571 75.5356C125.335 74.993 126.182 74.7386 127.149 74.7386H127.2C128.107 74.7386 128.929 75.0015 129.701 75.5187C130.464 76.0359 131.075 76.782 131.524 77.7485C131.973 78.7151 132.194 79.9021 132.194 81.2502C132.211 82.6915 131.99 83.8955 131.532 84.862ZM115.05 85.0825C114.719 84.8027 114.287 84.6586 113.736 84.6586C113.236 84.6586 112.88 84.7857 112.6 84.9892C111.947 85.5827 111.413 86.066 111.006 86.4136C110.599 86.7443 110.149 87.0665 109.649 87.3802C109.183 87.6769 108.666 87.9143 108.148 88.033C107.614 88.1772 107.055 88.2535 106.427 88.2535C106.283 88.2535 106.164 88.2535 106.037 88.2365C105.257 88.1856 104.52 87.9737 103.867 87.5837C103.087 87.1343 102.476 86.473 101.993 85.6166C101.544 84.7264 101.289 83.692 101.272 82.5389H111.531C112.905 82.5389 113.965 82.3354 114.719 81.9793C115.482 81.5893 115.855 80.7584 115.855 79.4782C115.855 78.0877 115.482 76.7311 114.745 75.4C114.007 74.0688 112.93 72.9836 111.447 72.1527C109.98 71.3133 108.233 70.9063 106.181 70.9063H106.029C104.511 70.9233 103.121 71.1692 101.891 71.644C100.594 72.1442 99.5173 72.8479 98.6101 73.7551C97.7537 74.6793 97.067 75.7815 96.6091 77.0787C96.1513 78.3759 95.9054 79.7834 95.9054 81.2756C95.9054 84.4805 96.8465 86.9902 98.7034 88.8639C100.467 90.6275 102.9 91.5686 106.012 91.6619C106.181 91.6788 106.368 91.6788 106.555 91.6788C108.004 91.6788 109.319 91.4923 110.455 91.1192C111.591 90.7462 112.532 90.2799 113.278 89.7118C114.024 89.1352 114.592 88.5417 114.948 87.9313C115.321 87.3208 115.508 86.7782 115.508 86.3204C115.559 85.7693 115.389 85.3538 115.05 85.0825ZM102.832 75.7476C103.663 74.8743 104.74 74.4334 106.046 74.4334H106.063C107.419 74.4334 108.53 74.8573 109.361 75.7137C110.192 76.57 110.692 77.8842 110.794 79.6308H101.298C101.476 77.9181 101.976 76.6209 102.832 75.7476ZM92.7684 84.6501C92.2512 84.6501 91.8951 84.7773 91.6153 84.9807C90.9709 85.5742 90.4283 86.0575 90.0213 86.4051C89.6143 86.7358 89.1819 87.058 88.6817 87.3717C88.1984 87.6685 87.6982 87.9059 87.164 88.0246C86.6468 88.1687 86.0703 88.245 85.4429 88.245C85.2987 88.245 85.18 88.245 85.0529 88.228C84.2728 88.1772 83.5352 87.9652 82.8823 87.5752C82.1193 87.1258 81.4919 86.4645 81.0425 85.6082C80.5592 84.7179 80.3218 83.6835 80.3049 82.5304H90.547C91.9035 82.5304 92.9634 82.327 93.7349 81.9709C94.481 81.5808 94.8626 80.7499 94.8626 79.4697C94.8626 78.0792 94.5065 76.7226 93.7688 75.3915C93.0312 74.0603 91.9459 72.9751 90.4707 72.1442C89.0039 71.3048 87.2403 70.8978 85.2055 70.8978H85.0359C83.5182 70.9148 82.1447 71.1607 80.8984 71.6355C79.6011 72.1357 78.5244 72.8394 77.6341 73.7466C76.7608 74.6708 76.0741 75.773 75.6162 77.0702C75.1499 78.3675 74.9125 79.7749 74.9125 81.2671C74.9125 84.472 75.8621 86.9817 77.7274 88.8555C79.4909 90.619 81.9158 91.5601 85.0189 91.6534C85.2055 91.6703 85.375 91.6703 85.5616 91.6703C87.0284 91.6703 88.3256 91.4838 89.4617 91.1108C90.5978 90.7377 91.539 90.2714 92.2766 89.7033C93.0397 89.1268 93.5908 88.5333 93.9638 87.9228C94.3369 87.3124 94.5234 86.7697 94.5234 86.3119C94.5234 85.7947 94.3538 85.3877 94.0232 85.1079C93.7349 84.7857 93.2771 84.6501 92.7684 84.6501ZM81.831 75.7476C82.6619 74.8743 83.7387 74.4334 85.0444 74.4334H85.0613C86.4179 74.4334 87.5286 74.8573 88.3595 75.7137C89.1989 76.57 89.6906 77.8842 89.8093 79.6308H80.3049C80.4914 77.9181 81.0086 76.6209 81.831 75.7476ZM23.4306 88.2535V76.0867C23.7867 76.1206 24.1343 76.1376 24.4735 76.1376C26.1777 76.1376 27.7717 75.6882 29.1282 74.9082V88.262C29.1282 89.3981 28.8654 90.2459 28.3312 90.8055C27.7971 91.3651 27.1103 91.6449 26.254 91.6449C25.4231 91.6449 24.7533 91.3651 24.2276 90.7886C23.7189 90.2035 23.4306 89.3811 23.4306 88.2535ZM72.7505 64.0811C72.3096 63.5808 71.7076 63.335 70.936 63.335C70.1391 63.335 69.5286 63.5978 69.0962 64.1489C68.6553 64.6831 68.4518 65.48 68.4518 66.5059V74.0349C67.4683 72.9751 66.4509 72.2205 65.408 71.7118C64.7552 71.3981 64.0006 71.1692 63.1612 71.0589C62.6779 70.9996 62.1607 70.9657 61.6011 70.9657C59.0067 70.9657 56.8871 71.8559 55.2931 73.6534C53.6991 75.4339 52.9021 77.9181 52.9021 81.0976C52.9021 82.5983 53.1056 84.0057 53.4956 85.2945C53.9026 86.5747 54.4961 87.7024 55.2761 88.6689C56.0562 89.6185 56.9973 90.3562 58.0571 90.8903C59.1339 91.4075 60.2785 91.6703 61.5418 91.6703C62.1014 91.6703 62.6525 91.6195 63.1697 91.5262C63.5173 91.4753 63.8225 91.3821 64.1532 91.2888C64.9502 91.026 65.6963 90.6444 66.3746 90.1612C67.0783 89.6609 67.7481 89.025 68.4688 88.2365V88.7368C68.4688 89.6779 68.7062 90.3901 69.1725 90.9073C69.6219 91.4075 70.2493 91.6703 70.953 91.6703C71.6567 91.6703 72.2672 91.4245 72.7165 90.9497C73.1659 90.4494 73.3863 89.7287 73.3863 88.7452V66.2346C73.3694 65.302 73.1659 64.5644 72.7505 64.0811ZM67.4853 84.862C67.0359 85.8116 66.4085 86.5323 65.6624 86.9986C64.9163 87.465 64.0684 87.6854 63.1612 87.6854H63.1442C62.2201 87.6854 61.3977 87.4395 60.6261 86.9647C59.8461 86.4645 59.2526 85.7438 58.8117 84.7773C58.3708 83.8107 58.1588 82.6237 58.1588 81.2502C58.1588 79.936 58.3623 78.7829 58.7693 77.8164C59.1932 76.8328 59.7698 76.0698 60.5328 75.5356C61.279 74.993 62.1438 74.7386 63.0934 74.7386H63.1527C64.0599 74.7386 64.8823 75.0015 65.6369 75.5187C66.417 76.0359 67.0274 76.782 67.4768 77.7485C67.9177 78.7151 68.1466 79.9021 68.1466 81.2502C68.1551 82.6915 67.9177 83.8955 67.4853 84.862ZM37.5051 73.7297V74.3571C38.4462 73.1701 39.4382 72.3138 40.5149 71.7457C41.6256 71.2031 42.872 70.9148 44.2964 70.9148C45.6699 70.9148 46.9078 71.2116 47.993 71.7881C49.0868 72.3646 49.8838 73.1955 50.4094 74.2723C50.7655 74.8997 50.986 75.5865 51.0792 76.2987C51.1725 77.0024 51.2319 77.9351 51.2319 79.0627V88.5248C51.2319 89.5592 50.986 90.3222 50.4942 90.8394C50.0279 91.3736 49.3835 91.6364 48.6205 91.6364C47.8404 91.6364 47.213 91.3736 46.7128 90.8225C46.2125 90.2883 45.9751 89.5253 45.9751 88.5248V80.0462C45.9751 78.359 45.7377 77.0787 45.2545 76.1885C44.7881 75.2982 43.8216 74.8489 42.3802 74.8489C41.4391 74.8489 40.5997 75.1286 39.8367 75.6628C39.0736 76.2054 38.497 76.9431 38.1325 77.9096C37.8866 78.6727 37.7594 80.0801 37.7594 82.1743V88.5333C37.7594 89.5761 37.5135 90.3307 37.0133 90.8564C36.5131 91.3736 35.8856 91.6364 35.1056 91.6364C34.3425 91.6364 33.7321 91.3736 33.2319 90.8225C32.7316 90.2883 32.4942 89.5253 32.4942 88.5248V73.8145C32.4942 72.8479 32.7147 72.1103 33.1471 71.644C33.571 71.1607 34.1645 70.9063 34.9276 70.9063C35.3769 70.9063 35.7839 70.9996 36.157 71.22C36.53 71.4405 36.8268 71.7542 37.0642 72.1696C37.4118 72.6275 37.5051 73.1362 37.5051 73.7297ZM23.4645 59.1042C26.9916 57.8663 31.0274 57.9341 34.0373 60.4777C34.5969 60.9949 35.2413 61.6308 35.4872 62.4023C35.8009 63.3519 34.4273 62.3091 34.2238 62.1649C33.2403 61.5375 32.2568 61.0118 31.1461 60.6473C25.2111 58.8668 19.5898 62.0801 16.0967 67.0994C14.6638 69.3039 13.7057 71.627 12.9257 74.1875C12.8494 74.4673 12.7731 74.8319 12.612 75.0778C12.4594 75.3576 12.5526 74.3317 12.5526 74.2808C12.6798 73.221 12.9002 72.2035 13.1631 71.1776C14.7825 65.7344 18.3435 61.1899 23.4645 59.1042ZM30.3067 68.9054C30.3067 71.22 28.433 73.1023 26.1183 73.1023C23.8037 73.1023 21.9299 71.2285 21.9299 68.9054C21.9299 66.5823 23.8037 64.7085 26.1183 64.7085C28.433 64.7085 30.3067 66.5823 30.3067 68.9054Z" fill="#003A9B"/>
</svg>
