<?xml version="1.0" encoding="UTF-8"?>
<svg id="Calque_1" xmlns="http://www.w3.org/2000/svg" viewBox="0 0 340 340">
    <defs>
        <style>
            .cls-1 {
            fill: #FFCD00;
            }
        </style>
    </defs>
    <g id="HWdYN9">
        <g>
            <path class="cls-1" d="M340,340c-113.31,0-226.62,0-340,0V0C113.29,0,226.64,0,340,0c0,113.33,0,226.66,0,340ZM169.47,277.35c59.08-.03,107.59-47.92,107.58-106.2-.01-59.89-47.8-108.18-107.19-108.3-59.44-.12-107.25,48.32-107.23,108.66.02,57.88,48.46,105.87,106.83,105.84Z"/>
            <path d="M169.47,277.35c-58.37.03-106.81-47.96-106.83-105.84-.02-60.34,47.78-108.78,107.23-108.66,59.38.12,107.17,48.41,107.19,108.3.01,58.28-48.5,106.18-107.58,106.2ZM78.26,203.77c61.26-39.43,121.89-39.39,183.14.03,7.84-22.43,7.97-44.97-.09-67.19-61.5,39.48-122.12,39.4-183.12-.03-7.98,22.44-8.02,44.93.06,67.18ZM97.75,236.12c2.03-2.62,3.62-4.72,5.26-6.77,9.24-11.53,19.85-21.55,32.51-29.26,19.02-11.58,38.79-14.38,59.5-4.79,10.82,5.02,20.55,11.73,28.88,20.27,6.22,6.37,12.01,13.15,18.31,20.1,2.93-3.77,5.85-7.52,8.92-11.46-2.98-3.36-5.42-6.55-8.3-9.27-4.95-4.69-9.88-9.49-15.32-13.55-47.92-35.8-101.67-21.75-136.81,20.39-.81.98-1.28,3.29-.69,4.2,2.21,3.43,4.93,6.55,7.74,10.15ZM241.85,104.21c-1.5,1.95-2.5,3.26-3.51,4.57-9.18,12-19.92,22.33-32.67,30.54-23.32,15.01-46.83,15.48-70.44.85-13.31-8.24-24.5-18.86-33.94-31.34-1.05-1.39-2.19-2.72-3.58-4.43-2.6,3.26-4.68,6.07-6.98,8.68-1.91,2.16-1.89,3.93.16,5.99,3.63,3.66,6.97,7.62,10.68,11.2,33.09,31.93,76.97,38.04,115.09,15.96,13.36-7.74,24.76-17.76,34.37-30.24-3.05-3.92-5.89-7.56-9.18-11.77ZM146.25,264.06c.66.44,1.03.85,1.48.96,14.13,3.69,28.34,3.53,42.5.37,1.15-.26,2.69-2.89,2.53-4.25-1.64-13.76-4.33-27.3-10.88-39.7-2.65-5.02-5.64-10.36-12.38-10.16-6.41.18-9.29,5.39-11.84,10.25-7,13.32-9.46,27.88-11.4,42.52ZM146.09,75.66c.77,4.88,1.32,9.47,2.23,13.99,2.29,11.43,4.8,22.85,11.45,32.72,6.16,9.14,13.89,9.37,19.81.25,9.21-14.18,11.57-30.46,13.78-47.09-16-3.65-31.36-3.8-47.27.14ZM114.14,90.05c4.82,16.38,22.76,39.79,36.46,48.21,13.1,8.05,26.08,8.05,38.91-.41,17.5-11.54,27.67-28.7,36.51-47.61-4.56-2.64-8.77-5.07-13.32-7.71-.72,2.24-1.16,3.65-1.63,5.06-4.79,14.36-11.37,27.73-22.2,38.56-12.9,12.9-25.3,12.81-38.17-.03-7.89-7.88-13.54-17.26-17.91-27.42-2.2-5.12-3.98-10.42-6.16-16.19-4.47,2.7-8.53,5.16-12.47,7.53ZM126.92,257.99c.79-2.51,1.27-4.09,1.79-5.65,4.77-14.39,11.43-27.75,22.4-38.47,12.83-12.53,24.65-12.45,37.46.07,9.59,9.37,15.81,20.91,20.51,33.33,1.26,3.34,2.38,6.74,3.76,10.65,4.64-2.74,8.73-5.16,13.12-7.76-1.98-4.1-3.52-7.76-5.44-11.21-8.42-15.14-18.18-29.14-33.69-37.99-11-6.28-22.27-6.62-33.32-.41-19.73,11.1-30.46,29.49-39.87,49.56,4.53,2.69,8.63,5.11,13.28,7.87Z"/>
            <path class="cls-1" d="M78.26,203.77c-8.08-22.25-8.04-44.74-.06-67.18,61,39.42,121.62,39.51,183.12.03,8.06,22.22,7.93,44.76.09,67.19-61.25-39.42-121.88-39.46-183.14-.03Z"/>
            <path class="cls-1" d="M97.75,236.12c-2.82-3.6-5.53-6.72-7.74-10.15-.59-.91-.12-3.22.69-4.2,35.14-42.14,88.89-56.19,136.81-20.39,5.45,4.07,10.37,8.87,15.32,13.55,2.88,2.72,5.32,5.91,8.3,9.27-3.07,3.95-5.99,7.7-8.92,11.46-6.3-6.95-12.1-13.73-18.31-20.1-8.33-8.53-18.05-15.25-28.88-20.27-20.7-9.6-40.47-6.79-59.5,4.79-12.67,7.71-23.28,17.73-32.51,29.26-1.64,2.05-3.23,4.15-5.26,6.77Z"/>
            <path class="cls-1" d="M241.85,104.21c3.29,4.22,6.13,7.86,9.18,11.77-9.61,12.48-21.02,22.51-34.37,30.24-38.12,22.08-82,15.97-115.09-15.96-3.71-3.58-7.04-7.54-10.68-11.2-2.05-2.06-2.07-3.83-.16-5.99,2.3-2.61,4.37-5.41,6.98-8.68,1.39,1.71,2.53,3.04,3.58,4.43,9.44,12.48,20.63,23.09,33.94,31.34,23.62,14.63,47.13,14.15,70.44-.85,12.75-8.2,23.48-18.53,32.67-30.54,1-1.31,2.01-2.62,3.51-4.57Z"/>
            <path class="cls-1" d="M146.25,264.06c1.94-14.64,4.4-29.2,11.4-42.52,2.55-4.86,5.44-10.06,11.84-10.25,6.74-.19,9.73,5.14,12.38,10.16,6.55,12.4,9.24,25.94,10.88,39.7.16,1.35-1.38,3.99-2.53,4.25-14.16,3.16-28.37,3.31-42.5-.37-.45-.12-.82-.52-1.48-.96Z"/>
            <path class="cls-1" d="M146.09,75.66c15.9-3.94,31.26-3.79,47.27-.14-2.21,16.63-4.57,32.91-13.78,47.09-5.92,9.12-13.65,8.9-19.81-.25-6.65-9.87-9.16-21.29-11.45-32.72-.91-4.52-1.46-9.1-2.23-13.99Z"/>
            <path class="cls-1" d="M114.14,90.05c3.93-2.37,7.99-4.83,12.47-7.53,2.18,5.77,3.96,11.07,6.16,16.19,4.37,10.16,10.02,19.54,17.91,27.42,12.87,12.85,25.28,12.93,38.17.03,10.84-10.84,17.42-24.2,22.2-38.56.47-1.41.91-2.82,1.63-5.06,4.56,2.64,8.76,5.07,13.32,7.71-8.84,18.9-19.01,36.06-36.51,47.61-12.83,8.46-25.81,8.46-38.91.41-13.71-8.42-31.64-31.83-36.46-48.21Z"/>
            <path class="cls-1" d="M126.92,257.99c-4.66-2.76-8.75-5.18-13.28-7.87,9.41-20.07,20.14-38.46,39.87-49.56,11.05-6.22,22.32-5.87,33.32.41,15.5,8.85,25.27,22.85,33.69,37.99,1.92,3.45,3.46,7.11,5.44,11.21-4.39,2.59-8.48,5.01-13.12,7.76-1.38-3.91-2.49-7.31-3.76-10.65-4.69-12.42-10.91-23.96-20.51-33.33-12.81-12.52-24.63-12.6-37.46-.07-10.97,10.71-17.63,24.07-22.4,38.47-.52,1.57-1,3.15-1.79,5.65Z"/>
        </g>
    </g>
</svg>