<svg width="150" height="150" viewBox="0 0 150 150" fill="none" xmlns="http://www.w3.org/2000/svg">
    <rect width="150" height="149.998" fill="#E6E6E6"/>
    <path d="M118.821 95.57C118.821 100.07 115.178 103.927 110.464 103.927C105.964 103.927 102.106 100.284 102.106 95.57C102.106 91.07 105.749 87.2129 110.464 87.2129C115.178 87.4272 118.821 91.07 118.821 95.57Z" fill="#283276"/>
    <path d="M64.393 64.7165C64.393 69.2165 60.7501 73.0737 56.0359 73.0737C51.3216 73.0737 47.6787 69.4308 47.6787 64.7165C47.6787 60.2165 51.3216 56.3594 56.0359 56.3594C60.7501 56.3594 64.393 60.2165 64.393 64.7165Z" fill="#F29FC5"/>
    <path d="M103.393 86.572C103.393 91.072 99.7497 94.9291 95.0354 94.9291C90.3211 94.9291 86.8926 91.072 86.8926 86.572C86.8926 82.072 90.5354 78.2148 95.2497 78.2148C99.964 78.2148 103.393 82.072 103.393 86.572Z" fill="#008ECF"/>
    <path d="M83.2504 96.6423C83.2504 101.142 79.6076 104.999 74.8933 104.999C70.179 104.999 66.5361 101.357 66.5361 96.6423C66.5361 92.1423 70.179 88.2852 74.8933 88.2852C79.6076 88.2852 83.2504 91.928 83.2504 96.6423Z" fill="#F29FC5"/>
    <path d="M83.2504 115.927C83.2504 120.427 79.6076 124.285 74.8933 124.285C70.3933 124.285 66.5361 120.642 66.5361 115.927C66.5361 111.427 70.179 107.57 74.8933 107.57C79.6076 107.785 83.2504 111.427 83.2504 115.927Z" fill="#283276"/>
    <path d="M118.821 54.4294C118.821 58.9294 115.178 62.7866 110.464 62.7866C105.964 62.7866 102.106 59.1437 102.106 54.4294C102.106 49.9294 105.749 46.0723 110.464 46.0723C115.178 46.2866 118.821 49.9294 118.821 54.4294Z" fill="#283276"/>
    <path d="M103.393 64.7165C103.393 69.2165 99.7497 73.0737 95.0354 73.0737C90.3211 73.0737 86.8926 69.4308 86.8926 64.7165C86.8926 60.2165 90.5354 56.3594 95.2497 56.3594C99.964 56.3594 103.393 60.2165 103.393 64.7165Z" fill="#283276"/>
    <path d="M63.3217 87.2165C63.3217 91.7165 59.6789 95.5737 54.9646 95.5737C50.2503 95.5737 46.6074 91.9308 46.6074 87.2165C46.6074 82.7165 50.2503 78.8594 54.9646 78.8594C59.6789 78.8594 63.3217 82.7165 63.3217 87.2165Z" fill="#283276"/>
    <path d="M47.4637 52.717C48.5351 57.217 45.7494 61.5028 41.2494 62.5742C36.7494 63.6456 32.4637 60.8599 31.3922 56.3599C30.5351 51.8599 33.3208 47.3599 37.6065 46.5028C42.1065 45.4313 46.6065 48.217 47.4637 52.717Z" fill="#283276"/>
    <path d="M46.8216 70.4982C46.393 73.0697 44.0359 74.7839 41.4645 74.5697C38.893 74.1411 37.1788 71.7839 37.393 69.2125C37.8216 66.6411 40.1788 64.9268 42.7502 65.1411C45.3216 65.5697 47.0359 67.9268 46.8216 70.4982Z" fill="#E1000F"/>
    <path d="M94.178 104.575C93.7495 107.575 90.9637 109.503 87.9637 109.075C84.9637 108.646 83.0352 105.86 83.4637 102.86C83.8923 99.8602 86.678 97.9317 89.678 98.3602C92.4637 98.7888 94.3923 101.575 94.178 104.575Z" fill="#E1000F"/>
    <path d="M110.036 70.2873C109.822 72.0016 108.107 73.2873 106.393 73.073C104.679 72.8587 103.393 71.1445 103.607 69.4302C103.822 67.7159 105.536 66.4302 107.25 66.6445C109.179 66.8587 110.25 68.573 110.036 70.2873Z" fill="#E1000F"/>
    <path d="M77.8929 55.0725C77.4643 57.6439 75.1072 59.3582 72.5358 59.1439C69.9643 58.7153 68.25 56.3582 68.4643 53.7867C68.8929 51.2153 71.25 49.501 73.8215 49.7153C76.6072 50.1439 78.3215 52.501 77.8929 55.0725Z" fill="#E1000F"/>
    <path d="M91.3929 48.8557C90.9643 51.4271 88.6072 53.1414 86.0358 52.9271C83.4643 52.4985 81.75 50.1414 81.9643 47.5699C82.3929 44.9985 84.75 43.2842 87.3215 43.4985C90.1072 43.9271 91.8215 46.2842 91.3929 48.8557Z" fill="#F29FC5"/>
    <path d="M60.9632 100.498C60.5346 103.07 58.1775 104.784 55.6061 104.57C53.0346 104.141 51.3204 101.784 51.5346 99.2125C51.9632 96.6411 54.3204 94.9268 56.8918 95.1411C59.4632 95.5697 61.1775 98.1411 60.9632 100.498Z" fill="#FFE000"/>
    <path d="M107.035 79.5002C106.607 82.0716 104.25 83.7859 101.678 83.5716C99.1069 83.143 97.3926 80.7859 97.6069 78.2145C98.0355 75.643 100.393 73.9288 102.964 74.143C105.75 74.5716 107.464 76.9288 107.035 79.5002Z" fill="#FFE000"/>
    <path d="M101.68 101.358C102.966 103.501 102.323 106.501 100.18 107.787C98.0372 109.073 95.0372 108.43 93.7515 106.287C92.4658 104.144 93.1086 101.144 95.2515 99.8583C97.3943 98.3583 100.394 99.2155 101.68 101.358Z" fill="#283276"/>
    <path d="M65.8939 46.0725C65.4653 48.6439 63.1082 50.3582 60.5367 50.1439C57.9653 49.7153 56.251 47.3582 56.4653 44.7867C56.8939 42.2153 59.251 40.501 61.8225 40.7153C64.3939 41.1439 66.1082 43.501 65.8939 46.0725Z" fill="#FFE000"/>
    <path d="M83.679 34.2863C83.679 39.0006 79.8218 42.8577 75.1076 42.8577C70.3933 42.8577 66.5361 39.0006 66.5361 34.2863C66.5361 29.572 70.3933 25.7148 75.1076 25.7148C79.8218 25.7148 83.679 29.572 83.679 34.2863Z" fill="#008ECF"/>
    <path d="M47.6787 95.57C47.6787 100.07 44.0359 103.927 39.3216 103.927C34.6073 103.927 31.1787 100.07 31.1787 95.57C31.1787 91.07 34.8216 87.2129 39.5359 87.2129C44.2501 87.2129 47.6787 91.07 47.6787 95.57Z" fill="#008ECF"/>
    <path d="M88.393 73.2868C88.393 81.2154 81.9644 87.644 74.0359 87.644C66.1073 87.644 59.6787 81.2154 59.6787 73.2868C59.6787 65.3583 66.1073 58.9297 74.0359 58.9297C81.9644 58.9297 88.393 65.3583 88.393 73.2868Z" fill="#008ECF"/>
</svg>
