<svg width="150" height="150" viewBox="0 0 150 150" fill="none" xmlns="http://www.w3.org/2000/svg">
    <rect width="150" height="150" fill="#E6E6E6"/>
    <g clip-path="url(#clip0_746_126)">
        <path d="M17.305 47.1367V59.0741C19.9887 55.2718 26.9168 53.5077 30.4185 57.0138C30.9932 57.5885 32.3373 60.3872 32.3373 61.0637V77.2012H27.0318V62.39C27.0318 61.9391 25.7098 60.5375 25.1528 60.2899C23.2339 59.4499 20.4264 60.4093 19.0691 61.9391C18.795 62.2441 17.305 64.8615 17.305 65.0384V77.1968H11.9951L12.2162 48.4587L13.768 47.1367H17.305Z" fill="black"/>
        <path d="M61.9597 47.1353V71.6732C62.2073 73.1234 63.8565 73.1941 65.0369 73.2383L65.0635 77.3855C61.1462 78.3051 57.3042 77.4695 56.694 72.9598C56.0839 68.4501 56.0618 53.8644 56.6277 49.5404C56.7913 48.3113 57.344 48.024 57.9806 47.1309H61.9597V47.1353Z" fill="black"/>
        <path d="M71.6865 47.1353L71.7307 70.3026C72.2259 73.7424 74.6487 72.8891 74.8123 73.4903L74.7858 77.6419C71.4124 78.0265 67.4642 77.3766 66.854 73.4108C66.2041 69.1929 66.2704 53.4842 66.7966 49.0939C66.9336 47.9399 67.3006 47.7498 68.1539 47.1309H71.6909L71.6865 47.1353Z" fill="black"/>
        <path d="M52.2374 93.117C52.9095 93.0551 52.9139 92.4494 53.0907 91.9895C54.426 88.5542 54.9919 84.7078 56.2696 81.2371L62.1897 81.6129L65.7134 93.1258L69.5334 81.2459L75.2191 81.1884L68.543 102.804H62.8838L59.0815 90.4642L55.2616 102.786L49.6201 102.804C49.5449 98.9574 43.3596 85.6849 44.0183 82.9348C44.5135 80.879 47.4227 80.6579 48.9215 81.6173L52.2374 93.117Z" fill="black"/>
        <path d="M122.973 72.7792V88.6957L128.721 81.1796H135.353L128.805 89.7966L138.005 102.844H131.594L125.405 94.4522C122.261 96.592 122.969 99.5101 122.973 102.848H117.663V74.3266C117.663 72.4388 121.722 72.7217 122.969 72.7792H122.973Z" fill="black"/>
        <path d="M54.4439 67.4735H39.4117C40.8707 74.4325 47.6529 74.4767 52.6666 71.0105L54.413 74.7243C47.6838 80.6178 35.2159 77.7706 34.1592 68.088C32.3421 51.4597 57.2956 50.3898 54.4439 67.4735ZM39.8538 63.9365H48.9173L49.4081 63.0213C48.0242 57.3002 40.318 58.3834 39.8538 63.9365Z" fill="black"/>
        <path d="M81.8111 90.9491C83.0976 100.172 94.5487 99.6015 96.2951 90.8828L100.871 90.9005C100.557 106.994 77.4738 106.689 76.5542 90.9049L81.8155 90.9491H81.8111Z" fill="black"/>
        <path d="M102.635 83.6117C103.099 80.8838 105.752 81.0562 107.941 81.18C107.989 82.4268 107.87 83.7001 107.941 84.9469C107.967 85.4465 107.653 86.1583 108.378 86.0389C109.192 82.5152 112.389 80.6185 115.899 80.7335V86.0434C113.162 85.7869 110.2 86.9409 109.042 89.5759C108.759 90.2259 107.941 93.2588 107.941 93.7806V102.844H102.635V83.6117Z" fill="black"/>
        <path d="M100.867 77.2004L95.9724 77.0059C94.4073 68.3181 83.058 68.4419 81.8067 77.1562L76.5366 76.9749C77.8055 61.6111 100.535 61.5271 100.862 77.2048L100.867 77.2004Z" fill="black"/>
    </g>
    <defs>
        <clipPath id="clip0_746_126">
            <rect width="126.01" height="55.7254" fill="white" transform="translate(11.9951 47.1367)"/>
        </clipPath>
    </defs>
</svg>
